HIERARCHY
ROOT hip
{
  OFFSET 0 0 0
  CHANNELS 6 Xposition Yposition Zposition Zrotation Yrotation Xrotation
  JOINT abdomen
  {
    OFFSET 0 20.6881 -0.73152
    CHANNELS 3 Zrotation Xrotation Yrotation
    JOINT chest
    {
      OFFSET 0 11.7043 -0.48768
      CHANNELS 3 Zrotation Xrotation Yrotation
      JOINT neck
      {
        OFFSET 0 22.1894 -2.19456
        CHANNELS 3 Zrotation Xrotation Yrotation
        JOINT head
        {
          OFFSET -0.24384 7.07133 1.2192
          CHANNELS 3 Zrotation Xrotation Yrotation
          JOINT leftEye
          {
            OFFSET 4.14528 8.04674 8.04672
            CHANNELS 3 Zrotation Xrotation Yrotation
            End Site
            {
              OFFSET 1 0 0
            }
          }
          JOINT rightEye
          {
            OFFSET -3.6576 8.04674 8.04672
            CHANNELS 3 Zrotation Xrotation Yrotation
            End Site
            {
              OFFSET 1 0 0
            }
          }
        }
      }
      JOINT rCollar
      {
        OFFSET -2.68224 19.2634 -4.8768
        CHANNELS 3 Zrotation Xrotation Yrotation
        JOINT rShldr
        {
          OFFSET -8.77824 -1.95073 1.46304
          CHANNELS 3 Zrotation Xrotation Yrotation
          JOINT rForeArm
          {
            OFFSET -28.1742 -1.7115 0.48768
            CHANNELS 3 Zrotation Xrotation Yrotation
            JOINT rHand
            {
              OFFSET -22.5879 0.773209 7.07136
              CHANNELS 3 Zrotation Xrotation Yrotation
              JOINT rThumb1
              {
                OFFSET -1.2192 -0.487915 3.41376
                CHANNELS 3 Zrotation Xrotation Yrotation
                JOINT rThumb2
                {
                  OFFSET -3.37035 -0.52449 3.41376
                  CHANNELS 3 Zrotation Xrotation Yrotation
                  End Site
                  {
                    OFFSET -1.78271 -1.18214 1.43049
                  }
                }
              }
              JOINT rIndex1
              {
                OFFSET -7.75947 0.938293 5.60832
                CHANNELS 3 Zrotation Xrotation Yrotation
                JOINT rIndex2
                {
                  OFFSET -2.54057 -0.884171 1.56538
                  CHANNELS 3 Zrotation Xrotation Yrotation
                  End Site
                  {
                    OFFSET -1.62519 -0.234802 1.16502
                  }
                }
              }
              JOINT rMid1
              {
                OFFSET -8.24714 1.18213 3.41376
                CHANNELS 3 Zrotation Xrotation Yrotation
                JOINT rMid2
                {
                  OFFSET -3.10165 -0.590103 1.0647
                  CHANNELS 3 Zrotation Xrotation Yrotation
                  End Site
                  {
                    OFFSET -2.48547 -0.328903 0.83742
                  }
                }
              }
              JOINT rRing1
              {
                OFFSET -8.82822 0.546677 1.51678
                CHANNELS 3 Zrotation Xrotation Yrotation
                JOINT rRing2
                {
                  OFFSET -2.60934 -0.819778 -0.0198488
                  CHANNELS 3 Zrotation Xrotation Yrotation
                  End Site
                  {
                    OFFSET -2.33842 -0.294052 0.168128
                  }
                }
              }
              JOINT rPinky1
              {
                OFFSET -8.27202 -0.0477905 -0.4584
                CHANNELS 3 Zrotation Xrotation Yrotation
                JOINT rPinky2
                {
                  OFFSET -1.82734 -0.647385 -0.700984
                  CHANNELS 3 Zrotation Xrotation Yrotation
                  End Site
                  {
                    OFFSET -1.69225 -0.51767 -0.607171
                  }
                }
              }
            }
          }
        }
      }
      JOINT lCollar
      {
        OFFSET 2.68224 19.2634 -4.8768
        CHANNELS 3 Zrotation Xrotation Yrotation
        JOINT lShldr
        {
          OFFSET 8.77824 -1.95073 1.46304
          CHANNELS 3 Zrotation Xrotation Yrotation
          JOINT lForeArm
          {
            OFFSET 28.1742 -1.7115 0.48768
            CHANNELS 3 Zrotation Xrotation Yrotation
            JOINT lHand
            {
              OFFSET 22.5879 0.773209 7.07136
              CHANNELS 3 Zrotation Xrotation Yrotation
              JOINT lThumb1
              {
                OFFSET 1.2192 -0.487915 3.41376
                CHANNELS 3 Zrotation Xrotation Yrotation
                JOINT lThumb2
                {
                  OFFSET 3.37035 -0.52449 3.41376
                  CHANNELS 3 Zrotation Xrotation Yrotation
                  End Site
                  {
                    OFFSET 1.78271 -1.18214 1.43049
                  }
                }
              }
              JOINT lIndex1
              {
                OFFSET 7.75947 0.938293 5.60832
                CHANNELS 3 Zrotation Xrotation Yrotation
                JOINT lIndex2
                {
                  OFFSET 2.54057 -0.884171 1.56538
                  CHANNELS 3 Zrotation Xrotation Yrotation
                  End Site
                  {
                    OFFSET 1.62519 -0.234802 1.16502
                  }
                }
              }
              JOINT lMid1
              {
                OFFSET 8.24714 1.18213 3.41376
                CHANNELS 3 Zrotation Xrotation Yrotation
                JOINT lMid2
                {
                  OFFSET 3.10165 -0.590103 1.0647
                  CHANNELS 3 Zrotation Xrotation Yrotation
                  End Site
                  {
                    OFFSET 2.48547 -0.328903 0.83742
                  }
                }
              }
              JOINT lRing1
              {
                OFFSET 8.82822 0.546677 1.51678
                CHANNELS 3 Zrotation Xrotation Yrotation
                JOINT lRing2
                {
                  OFFSET 2.60934 -0.819778 -0.0198488
                  CHANNELS 3 Zrotation Xrotation Yrotation
                  End Site
                  {
                    OFFSET 2.33842 -0.294052 0.168128
                  }
                }
              }
              JOINT lPinky1
              {
                OFFSET 8.27202 -0.0477905 -0.4584
                CHANNELS 3 Zrotation Xrotation Yrotation
                JOINT lPinky2
                {
                  OFFSET 1.82734 -0.647385 -0.700984
                  CHANNELS 3 Zrotation Xrotation Yrotation
                  End Site
                  {
                    OFFSET 1.69225 -0.51767 -0.607171
                  }
                }
              }
            }
          }
        }
      }
    }
  }
  JOINT rButtock
  {
    OFFSET -8.77824 4.35084 1.2192
    CHANNELS 3 Zrotation Xrotation Yrotation
    JOINT rThigh
    {
      OFFSET 0 -1.70687 -2.19456
      CHANNELS 3 Zrotation Xrotation Yrotation
      JOINT rShin
      {
        OFFSET 0 -36.8199 0.73152
        CHANNELS 3 Zrotation Xrotation Yrotation
        JOINT rFoot
        {
          OFFSET 0.73152 -45.1104 -5.12064
          CHANNELS 3 Zrotation Xrotation Yrotation
          End Site
          {
            OFFSET -1.1221 -3.69964 12.103
          }
        }
      }
    }
  }
  JOINT lButtock
  {
    OFFSET 8.77824 4.35084 1.2192
    CHANNELS 3 Zrotation Xrotation Yrotation
    JOINT lThigh
    {
      OFFSET 0 -1.70687 -2.19456
      CHANNELS 3 Zrotation Xrotation Yrotation
      JOINT lShin
      {
        OFFSET 0 -36.8199 0.73152
        CHANNELS 3 Zrotation Xrotation Yrotation
        JOINT lFoot
        {
          OFFSET -0.73152 -45.1104 -5.12064
          CHANNELS 3 Zrotation Xrotation Yrotation
          End Site
          {
            OFFSET 1.1221 -3.69964 12.103
          }
        }
      }
    }
  }
}
MOTION
Frames:	4
Frame Time:	0.00833333
54.4295 58.9545 195.222 180.874 0.6605 -119.509 -3.73647 -1.3753 -0.816681 1.6503 -0.274646 -0.348323 4.06886 13.653 -7.84451 -2.87793 -61.2129 -15.3586 -0.0 0.0 0.0 -0.0 0.0 0.0 -1.58077e-14 1.90581e-14 1.99219e-14 86.4153 9.9962 -18.0386 -8.99451 -3.55165 15.9297 -0.0628118 7.19315 1.01619 6.72841e-10 -5.1716e-10 -2.17499e-09 1.15254e-09 -9.15001e-10 -3.7663e-09 6.72839e-10 -5.17161e-10 -2.175e-09 7.73091 5.47488 0.417314 6.72839e-10 -5.17157e-10 -2.17499e-09 2.90554 0.965183 0.102902 6.72844e-10 -5.17159e-10 -2.17499e-09 10.2786 0.731801 0.0259123 6.72836e-10 -5.17162e-10 -2.17498e-09 2.22167 -0.733487 -0.20892 -1.56572e-14 1.90592e-14 1.97189e-14 -86.2161 29.8515 23.0709 11.2265 -4.92056 -20.1228 0.00836683 2.58941 -0.364182 -1.04622e-09 -1.9786e-09 2.08446e-09 -1.80017e-09 -3.44501e-09 3.61302e-09 -1.04622e-09 -1.97861e-09 2.08445e-09 -7.73091 5.47488 -0.417314 -1.04622e-09 -1.97861e-09 2.08446e-09 -2.90554 0.965183 -0.102902 -1.04622e-09 -1.97861e-09 2.08445e-09 -10.2786 0.731801 -0.0259123 -1.04621e-09 -1.9786e-09 2.08445e-09 -2.22167 -0.733487 0.20892 -2.03217e-16 0.0 -3.88251e-19 160.692 -67.0991 159.722 -8.32557 84.2148 9.8446 -12.7817 -37.8096 -16.9955 2.03217e-16 0.0 3.88251e-19 -179.285 -64.9429 -179.52 43.9483 88.4953 -44.3938 0.516763 -25.1634 0.165886
54.4296 58.4849 194.785 180.778 0.6513 -119.678 -3.76724 -1.26392 -0.814687 1.67752 -0.571414 -0.342096 4.21953 13.6521 -7.97111 -3.28024 -61.1016 -15.9053 -0.0 0.0 0.0 -0.0 0.0 0.0 -1.66202e-15 -1.33584e-13 3.09607e-14 86.1881 11.3839 -15.7348 -8.95456 -3.52976 15.8549 -0.0554017 6.70163 0.946215 1.39066e-09 -3.16712e-09 -4.22132e-09 2.37735e-09 -5.55008e-09 -7.30842e-09 1.39066e-09 -3.16711e-09 -4.22132e-09 7.73091 5.47488 0.417314 1.39066e-09 -3.16711e-09 -4.22131e-09 2.90554 0.965183 0.102902 1.39066e-09 -3.16711e-09 -4.22131e-09 10.2786 0.731801 0.0259123 1.39065e-09 -3.16712e-09 -4.2213e-09 2.22167 -0.733487 -0.20892 -1.51865e-15 -1.33583e-13 3.07619e-14 -84.9382 29.9852 20.5098 11.0453 -4.80121 -19.7767 0.0111687 3.01593 -0.424258 -2.62496e-09 -2.52917e-09 3.47786e-09 -4.52491e-09 -4.41737e-09 6.02784e-09 -2.62496e-09 -2.52917e-09 3.47786e-09 -7.73091 5.47488 -0.417314 -2.62495e-09 -2.52917e-09 3.47786e-09 -2.90554 0.965183 -0.102902 -2.62496e-09 -2.52917e-09 3.47786e-09 -10.2786 0.731801 -0.0259123 -2.62495e-09 -2.52917e-09 3.47785e-09 -2.22167 -0.733487 0.20892 -2.03217e-16 0.0 -3.88251e-19 160.741 -66.8443 159.596 -10.3702 85.2454 11.8899 -12.6868 -38.2419 -16.7223 2.03217e-16 0.0 3.88251e-19 -179.136 -64.6067 -179.418 91.6598 88.9323 -92.0821 0.288972 -25.2405 -0.25655
54.4551 58.0569 194.342 180.829 0.6418 -119.79 -3.81816 -1.38937 -0.765224 1.70261 -0.729535 -0.321611 4.2203 13.3932 -7.74778 -2.67228 -61.2512 -14.9658 -0.0 0.0 0.0 -0.0 0.0 0.0 9.4441e-15 -2.05171e-13 3.52012e-14 85.7447 12.639 -13.086 -8.82029 -3.45593 15.6051 -0.0532232 6.4519 0.910932 1.30708e-09 -3.2818e-09 -3.96261e-09 2.23117e-09 -5.74852e-09 -6.85831e-09 1.30708e-09 -3.28179e-09 -3.96261e-09 7.73091 5.47488 0.417314 1.30708e-09 -3.2818e-09 -3.9626e-09 2.90554 0.965183 0.102902 1.30709e-09 -3.2818e-09 -3.9626e-09 10.2786 0.731801 0.0259123 1.30708e-09 -3.2818e-09 -3.96259e-09 2.22167 -0.733487 -0.20892 9.59326e-15 -2.0517e-13 3.50047e-14 -83.5325 29.9795 17.6918 10.8518 -4.67567 -19.4083 0.014822 3.4531 -0.485919 -2.53054e-09 -2.19134e-09 3.18724e-09 -4.36094e-09 -3.82955e-09 5.52267e-09 -2.53054e-09 -2.19133e-09 3.18723e-09 -7.73091 5.47488 -0.417314 -2.53054e-09 -2.19134e-09 3.18724e-09 -2.90554 0.965183 -0.102902 -2.53055e-09 -2.19134e-09 3.18724e-09 -10.2786 0.731801 -0.0259123 -2.53054e-09 -2.19134e-09 3.18723e-09 -2.22167 -0.733487 0.20892 -2.03217e-16 0.0 -3.88251e-19 160.762 -66.488 159.468 -13.3248 86.2131 14.851 -12.6891 -38.5384 -16.6172 2.03217e-16 0.0 3.88251e-19 -179.062 -64.2663 -179.392 134.497 88.4732 -134.897 0.0741335 -25.3965 -0.648723
54.4675 57.7077 193.939 180.878 0.6966 -119.745 -3.88218 -1.69491 -0.68677 1.73248 -0.786203 -0.292297 4.13526 12.9617 -7.29898 -1.38994 -61.5505 -13.0395 -0.0 0.0 0.0 -0.0 0.0 0.0 2.05472e-14 -2.40728e-13 3.55576e-14 85.0864 13.8077 -10.1354 -8.61973 -3.34581 15.2345 -0.0538787 6.38139 0.90118 7.64135e-10 -2.01309e-09 -2.38058e-09 1.29873e-09 -3.52544e-09 -4.11605e-09 7.64136e-10 -2.01306e-09 -2.38058e-09 7.73091 5.47488 0.417314 7.64135e-10 -2.01309e-09 -2.38058e-09 2.90554 0.965183 0.102902 7.64139e-10 -2.01309e-09 -2.38058e-09 10.2786 0.731801 0.0259123 7.64128e-10 -2.0131e-09 -2.38057e-09 2.22167 -0.733487 -0.20892 2.0702e-14 -2.40728e-13 3.53588e-14 -82.0279 29.8377 14.6412 10.6443 -4.54242 -19.0149 0.0193777 3.90388 -0.549594 -1.50115e-09 -1.27772e-09 1.91069e-09 -2.5827e-09 -2.23218e-09 3.30791e-09 -1.50115e-09 -1.27769e-09 1.91069e-09 -7.73091 5.47488 -0.417314 -1.50115e-09 -1.27772e-09 1.9107e-09 -2.90554 0.965183 -0.102902 -1.50116e-09 -1.27772e-09 1.91069e-09 -10.2786 0.731801 -0.0259123 -1.50115e-09 -1.27772e-09 1.91069e-09 -2.22167 -0.733487 0.20892 -2.03217e-16 0.0 -3.88251e-19 160.731 -66.0825 159.311 -17.9484 87.1163 19.4827 -12.7291 -38.7457 -16.5867 2.03217e-16 0.0 3.88251e-19 -179.016 -63.9433 -179.409 151.476 87.6757 -151.854 -0.135548 -25.5907 -1.02441
